<svg xmlns="http://www.w3.org/2000/svg" viewBox="0 0 181.01 178.01"><defs><style>.cls-1{fill:#f5b700;}.cls-2{fill:#debe14;}.cls-3{fill:#faf891;}.cls-4{fill:#dbf565;}.cls-5{fill:#ffec00;}.cls-6{fill:#fce600;}.cls-7{fill:#fff;}.cls-8{fill:#fc0;}</style></defs><title>answerbox</title><g id="레이어_2" data-name="레이어 2"><g id="레이어_1-2" data-name="레이어 1"><polygon class="cls-1" points="6.01 171.44 6 171.44 6 6.56 0.2 1 0 1 0 177.41 0.01 177.41 0.01 177.19 6.01 171.44"/><polygon class="cls-2" points="174.01 171.44 173.78 171.44 8.01 171.44 6.01 171.44 0.01 177.19 0.01 177.41 0.01 178.01 181 178.01 181 177.41 179.88 177.41 174.01 171.44"/><polygon class="cls-3" points="6 5.67 8.01 5.67 173.78 5.67 175 5.67 175 6.29 180.19 1 181 1 181 0 0.01 0 0.01 0.81 0.2 1 6 6.56 6 5.67"/><polygon class="cls-4" points="181 1 180.19 1 175 6.29 175 171.44 174.01 171.44 179.88 177.41 181 177.41 181.01 177.41 181.01 1 181 1"/><path class="cls-5" d="M173.78,5.66H6V171.44H175V5.66ZM151.39,28.94V149.13h-121V28.05h121Z"/><polygon class="cls-6" points="35.9 34.88 30.39 28.7 30.39 148.5 35.9 142.31 35.9 34.88"/><rect class="cls-6" x="35.89" y="143.55" width="110" height="0.08"/><polygon class="cls-6" points="145.9 142.06 151.4 148.25 151.4 28.95 145.9 35.13 145.9 142.06"/><polygon class="cls-7" points="35.9 143.56 145.9 143.56 145.9 142.06 145.9 35.13 145.9 33.55 35.9 33.55 35.9 34.88 35.9 142.31 35.9 143.56"/><polygon class="cls-8" points="30.39 28.7 35.9 34.88 35.9 33.55 145.9 33.55 145.9 35.13 151.4 28.95 151.4 28.05 30.39 28.05 30.39 28.7"/><polygon class="cls-8" points="145.9 143.56 145.9 143.63 35.9 143.63 35.9 143.56 35.9 142.31 30.39 148.5 30.39 149.06 30.39 149.13 151.4 149.13 151.4 149.06 151.4 148.25 145.9 142.06 145.9 143.56"/></g></g></svg>