<svg xmlns="http://www.w3.org/2000/svg" viewBox="0 0 102 102"><defs><style>.cls-1{fill:#ffe500;}.cls-2{fill:#fff;}</style></defs><title>b</title><g id="레이어_2" data-name="레이어 2"><g id="레이어_1-2" data-name="레이어 1"><path class="cls-1" d="M89,2H13A11,11,0,0,0,2,13V89a11,11,0,0,0,11,11H89a11,11,0,0,0,11-11V13A11,11,0,0,0,89,2Zm3.48,77.48a13,13,0,0,1-13,13h-57a13,13,0,0,1-13-13v-57a13,13,0,0,1,13-13h57a13,13,0,0,1,13,13Z"/><path d="M89,0H13A13,13,0,0,0,0,13V89a13,13,0,0,0,13,13H89a13,13,0,0,0,13-13V13A13,13,0,0,0,89,0Zm11,89a11,11,0,0,1-11,11H13A11,11,0,0,1,2,89V13A11,11,0,0,1,13,2H89a11,11,0,0,1,11,11Z"/><path class="cls-2" d="M79.48,11.52h-57a11,11,0,0,0-11,11v57a11,11,0,0,0,11,11h57a11,11,0,0,0,11-11v-57A11,11,0,0,0,79.48,11.52ZM68.88,74.1q-5.3,4.2-15.68,4.28H30.11V21.5H50.54q11,0,16.7,4T73,37.21a13.59,13.59,0,0,1-2,7.54,11.85,11.85,0,0,1-6,4.61,12,12,0,0,1,6.84,4.37,12.72,12.72,0,0,1,2.38,7.81Q74.17,69.91,68.88,74.1Z"/><path class="cls-2" d="M53.43,54.2H43.82V67.83h9a8.52,8.52,0,0,0,5.71-1.7,5.92,5.92,0,0,0,2-4.78Q60.5,54.24,53.43,54.2Z"/><path class="cls-2" d="M57.38,43.57a5.85,5.85,0,0,0,1.91-4.74q0-3.6-2.07-5.19t-6.68-1.59H43.82V45.21H51Q55.46,45.18,57.38,43.57Z"/><path d="M79.48,9.52h-57a13,13,0,0,0-13,13v57a13,13,0,0,0,13,13h57a13,13,0,0,0,13-13v-57A13,13,0,0,0,79.48,9.52Zm11,70a11,11,0,0,1-11,11h-57a11,11,0,0,1-11-11v-57a11,11,0,0,1,11-11h57a11,11,0,0,1,11,11Z"/><path d="M65,49.36a11.85,11.85,0,0,0,6-4.61,13.59,13.59,0,0,0,2-7.54q0-7.66-5.72-11.68t-16.7-4H30.11V78.38H53.2q10.38-.07,15.68-4.28t5.29-12.56a12.72,12.72,0,0,0-2.38-7.81A12,12,0,0,0,65,49.36ZM43.82,32.05h6.72q4.6,0,6.68,1.59t2.07,5.19a5.85,5.85,0,0,1-1.91,4.74q-1.92,1.6-6.41,1.64H43.82ZM58.51,66.13a8.52,8.52,0,0,1-5.71,1.7h-9V54.2h9.61q7.07,0,7.07,7.15A5.92,5.92,0,0,1,58.51,66.13Z"/></g></g></svg>