<svg xmlns="http://www.w3.org/2000/svg" viewBox="0 0 102 102"><defs><style>.cls-1{fill:#ffe500;}.cls-2{fill:#fff;}</style></defs><title>c</title><g id="레이어_2" data-name="레이어 2"><g id="레이어_1-2" data-name="레이어 1"><path class="cls-1" d="M89,2H13A11,11,0,0,0,2,13V89a11,11,0,0,0,11,11H89a11,11,0,0,0,11-11V13A11,11,0,0,0,89,2Zm3.48,77.48a13,13,0,0,1-13,13h-57a13,13,0,0,1-13-13v-57a13,13,0,0,1,13-13h57a13,13,0,0,1,13,13Z"/><path d="M89,0H13A13,13,0,0,0,0,13V89a13,13,0,0,0,13,13H89a13,13,0,0,0,13-13V13A13,13,0,0,0,89,0Zm11,89a11,11,0,0,1-11,11H13A11,11,0,0,1,2,89V13A11,11,0,0,1,13,2H89a11,11,0,0,1,11,11Z"/><path class="cls-2" d="M79.48,11.52h-57a11,11,0,0,0-11,11v57a11,11,0,0,0,11,11h57a11,11,0,0,0,11-11v-57A11,11,0,0,0,79.48,11.52Zm-37.74,53q2.28,3.92,7.87,3.91,4.72,0,7.23-2.23c1.66-1.48,2.55-3.84,2.65-7.07H73.12a20.67,20.67,0,0,1-3.2,10.49,19.35,19.35,0,0,1-8.22,7,28,28,0,0,1-12.09,2.5q-11.22,0-17.66-7.3T25.51,51.23V48.42a34.44,34.44,0,0,1,2.91-14.63A22,22,0,0,1,36.8,24.1a23.34,23.34,0,0,1,12.65-3.42q10.35,0,16.64,5.45t7.15,15H59.57c-.1-3.46-1-5.95-2.62-7.46s-4.14-2.26-7.5-2.26S43.54,32.7,42,35.25s-2.42,6.63-2.5,12.23v4Q39.45,60.61,41.74,64.51Z"/><path d="M79.48,9.52h-57a13,13,0,0,0-13,13v57a13,13,0,0,0,13,13h57a13,13,0,0,0,13-13v-57A13,13,0,0,0,79.48,9.52Zm11,70a11,11,0,0,1-11,11h-57a11,11,0,0,1-11-11v-57a11,11,0,0,1,11-11h57a11,11,0,0,1,11,11Z"/><path d="M42,35.25q2.38-3.82,7.5-3.82T57,33.69c1.64,1.51,2.52,4,2.62,7.46H73.24q-.85-9.57-7.15-15T49.45,20.68A23.34,23.34,0,0,0,36.8,24.1a22,22,0,0,0-8.38,9.69,34.44,34.44,0,0,0-2.91,14.63v2.81q0,13.32,6.44,20.63t17.66,7.3a28,28,0,0,0,12.09-2.5,19.35,19.35,0,0,0,8.22-7,20.67,20.67,0,0,0,3.2-10.49H59.49c-.1,3.23-1,5.59-2.65,7.07s-4.08,2.23-7.23,2.23q-5.59,0-7.87-3.91t-2.29-13v-4Q39.57,39.08,42,35.25Z"/></g></g></svg>