<svg xmlns="http://www.w3.org/2000/svg" viewBox="0 0 102 102"><defs><style>.cls-1{fill:#ffe500;}.cls-2{fill:#fff;}</style></defs><title>d</title><g id="레이어_2" data-name="레이어 2"><g id="레이어_1-2" data-name="레이어 1"><path class="cls-1" d="M89,2H13A11,11,0,0,0,2,13V89a11,11,0,0,0,11,11H89a11,11,0,0,0,11-11V13A11,11,0,0,0,89,2Zm3.48,77.48a13,13,0,0,1-13,13h-57a13,13,0,0,1-13-13v-57a13,13,0,0,1,13-13h57a13,13,0,0,1,13,13Z"/><path d="M89,0H13A13,13,0,0,0,0,13V89a13,13,0,0,0,13,13H89a13,13,0,0,0,13-13V13A13,13,0,0,0,89,0Zm11,89a11,11,0,0,1-11,11H13A11,11,0,0,1,2,89V13A11,11,0,0,1,13,2H89a11,11,0,0,1,11,11Z"/><path class="cls-2" d="M79.48,11.52h-57a11,11,0,0,0-11,11v57a11,11,0,0,0,11,11h57a11,11,0,0,0,11-11v-57A11,11,0,0,0,79.48,11.52ZM75.8,51.15a29.33,29.33,0,0,1-3.3,14,24.21,24.21,0,0,1-9.3,9.68,26.42,26.42,0,0,1-13.38,3.54H31.11V21.5H49.43A26.91,26.91,0,0,1,63,24.92a24.06,24.06,0,0,1,9.4,9.65,29.21,29.21,0,0,1,3.42,14Z"/><path class="cls-2" d="M49.43,32.09H44.82V67.83h4.77a10.66,10.66,0,0,0,9.06-4.2q3.16-4.2,3.16-12.48V48.69q0-8.23-3.16-12.42T49.43,32.09Z"/><path d="M79.48,9.52h-57a13,13,0,0,0-13,13v57a13,13,0,0,0,13,13h57a13,13,0,0,0,13-13v-57A13,13,0,0,0,79.48,9.52Zm11,70a11,11,0,0,1-11,11h-57a11,11,0,0,1-11-11v-57a11,11,0,0,1,11-11h57a11,11,0,0,1,11,11Z"/><path d="M63,24.92A26.91,26.91,0,0,0,49.43,21.5H31.11V78.38H49.82A26.42,26.42,0,0,0,63.2,74.84a24.21,24.21,0,0,0,9.3-9.68,29.33,29.33,0,0,0,3.3-14V48.54a29.21,29.21,0,0,0-3.42-14A24.06,24.06,0,0,0,63,24.92ZM61.81,51.15q0,8.28-3.16,12.48a10.66,10.66,0,0,1-9.06,4.2H44.82V32.09h4.61q6.06,0,9.22,4.18t3.16,12.42Z"/></g></g></svg>