<svg xmlns="http://www.w3.org/2000/svg" viewBox="0 0 102 102"><defs><style>.cls-1{fill:#ffe500;}.cls-2{fill:#fff;}</style></defs><title>e</title><g id="레이어_2" data-name="레이어 2"><g id="레이어_1-2" data-name="레이어 1"><path class="cls-1" d="M89,2H13A11,11,0,0,0,2,13V89a11,11,0,0,0,11,11H89a11,11,0,0,0,11-11V13A11,11,0,0,0,89,2Zm3.48,77.48a13,13,0,0,1-13,13h-57a13,13,0,0,1-13-13v-57a13,13,0,0,1,13-13h57a13,13,0,0,1,13,13Z"/><path d="M89,0H13A13,13,0,0,0,0,13V89a13,13,0,0,0,13,13H89a13,13,0,0,0,13-13V13A13,13,0,0,0,89,0Zm11,89a11,11,0,0,1-11,11H13A11,11,0,0,1,2,89V13A11,11,0,0,1,13,2H89a11,11,0,0,1,11,11Z"/><path class="cls-2" d="M79.48,11.52h-57a11,11,0,0,0-11,11v57a11,11,0,0,0,11,11h57a11,11,0,0,0,11-11v-57A11,11,0,0,0,79.48,11.52ZM71.37,32.09H45.82v12H67.38V54.24H45.82V67.83H71.29V78.38H32.11V21.5H71.37Z"/><path d="M79.48,9.52h-57a13,13,0,0,0-13,13v57a13,13,0,0,0,13,13h57a13,13,0,0,0,13-13v-57A13,13,0,0,0,79.48,9.52Zm11,70a11,11,0,0,1-11,11h-57a11,11,0,0,1-11-11v-57a11,11,0,0,1,11-11h57a11,11,0,0,1,11,11Z"/><polygon points="32.11 78.38 71.29 78.38 71.29 67.83 45.82 67.83 45.82 54.24 67.38 54.24 67.38 44.08 45.82 44.08 45.82 32.09 71.37 32.09 71.37 21.5 32.11 21.5 32.11 78.38"/></g></g></svg>