<svg xmlns="http://www.w3.org/2000/svg" viewBox="0 0 102 102"><defs><style>.cls-1{fill:#ff931e;}.cls-2{fill:#fff;}</style></defs><title>g</title><g id="레이어_2" data-name="레이어 2"><g id="레이어_1-2" data-name="레이어 1"><path class="cls-1" d="M89,2H13A11,11,0,0,0,2,13V89a11,11,0,0,0,11,11H89a11,11,0,0,0,11-11V13A11,11,0,0,0,89,2Zm3.48,77.48a13,13,0,0,1-13,13h-57a13,13,0,0,1-13-13v-57a13,13,0,0,1,13-13h57a13,13,0,0,1,13,13Z"/><path d="M89,0H13A13,13,0,0,0,0,13V89a13,13,0,0,0,13,13H89a13,13,0,0,0,13-13V13A13,13,0,0,0,89,0Zm11,89a11,11,0,0,1-11,11H13A11,11,0,0,1,2,89V13A11,11,0,0,1,13,2H89a11,11,0,0,1,11,11Z"/><path class="cls-2" d="M79.48,11.52h-57a11,11,0,0,0-11,11v57a11,11,0,0,0,11,11h57a11,11,0,0,0,11-11v-57A11,11,0,0,0,79.48,11.52ZM74.83,72.43a22.08,22.08,0,0,1-9.26,5.66,40,40,0,0,1-13.36,2.15Q41,80.24,34.36,73.4t-7.15-19l0-4.92a33.94,33.94,0,0,1,3-14.67,22,22,0,0,1,8.5-9.65,24,24,0,0,1,12.79-3.38q10.62,0,16.5,4.86t6.86,14.52H61.59q-.71-4.77-3.05-6.8a9.85,9.85,0,0,0-6.64-2,9,9,0,0,0-8,4.37q-2.82,4.38-2.85,12.5v3.44q0,8.52,2.91,12.79t9.16,4.28c3.57,0,6.22-.79,8-2.38V58.48H51.59V49.07H74.83Z"/><path d="M79.48,9.52h-57a13,13,0,0,0-13,13v57a13,13,0,0,0,13,13h57a13,13,0,0,0,13-13v-57A13,13,0,0,0,79.48,9.52Zm11,70a11,11,0,0,1-11,11h-57a11,11,0,0,1-11-11v-57a11,11,0,0,1,11-11h57a11,11,0,0,1,11,11Z"/><path d="M51.59,58.48h9.53v8.83c-1.75,1.59-4.4,2.38-8,2.38q-6.26,0-9.16-4.28T41.08,52.62V49.18q0-8.11,2.85-12.5a9,9,0,0,1,8-4.37,9.85,9.85,0,0,1,6.64,2q2.34,2,3.05,6.8h13.2q-1-9.64-6.86-14.52t-16.5-4.86a24,24,0,0,0-12.79,3.38,22,22,0,0,0-8.5,9.65,33.94,33.94,0,0,0-3,14.67l0,4.92q.46,12.18,7.15,19t17.85,6.84a40,40,0,0,0,13.36-2.15,22.08,22.08,0,0,0,9.26-5.66V49.07H51.59Z"/></g></g></svg>