<svg xmlns="http://www.w3.org/2000/svg" viewBox="0 0 102.2 102.2"><defs><style>.cls-1{fill:#ff931e;}.cls-2{fill:#fff;}</style></defs><title>i</title><g id="레이어_2" data-name="레이어 2"><g id="레이어_1-2" data-name="레이어 1"><path class="cls-1" d="M89.23,2.2l-76-.2a11,11,0,0,0-11,11L2,89a11,11,0,0,0,11,11l76,.2a11,11,0,0,0,11-11l.2-76A11,11,0,0,0,89.23,2.2ZM92.5,79.69a13,13,0,0,1-13,13l-57-.15a13,13,0,0,1-13-13l.15-57a13,13,0,0,1,13-13l57,.15a13,13,0,0,1,13,13Z"/><path d="M89.23.2l-76-.2A13,13,0,0,0,.2,13L0,89a13,13,0,0,0,13,13l76,.2a13,13,0,0,0,13-13l.2-76A13,13,0,0,0,89.23.2Zm10.77,89a11,11,0,0,1-11,11L13,100A11,11,0,0,1,2,89l.2-76a11,11,0,0,1,11-11l76,.2a11,11,0,0,1,11,11Z"/><path class="cls-2" d="M79.68,11.7l-57-.15a11,11,0,0,0-11,11l-.15,57a11,11,0,0,0,11,11l57,.15a11,11,0,0,0,11-11l.15-57A11,11,0,0,0,79.68,11.7ZM57.86,79.56l-13.67,0,.15-56.88,13.67,0Z"/><path d="M79.69,9.7l-57-.15a13,13,0,0,0-13,13l-.15,57a13,13,0,0,0,13,13l57,.15a13,13,0,0,0,13-13l.15-57A13,13,0,0,0,79.69,9.7Zm10.81,70a11,11,0,0,1-11,11l-57-.15a11,11,0,0,1-11-11l.15-57a11,11,0,0,1,11-11l57,.15a11,11,0,0,1,11,11Z"/><rect x="22.66" y="44.26" width="56.88" height="13.67" transform="translate(-0.13 102.07) rotate(-89.85)"/></g></g></svg>