<svg xmlns="http://www.w3.org/2000/svg" viewBox="0 0 102 102"><defs><style>.cls-1{fill:#ff931e;}.cls-2{fill:#fff;}</style></defs><title>j</title><g id="레이어_2" data-name="레이어 2"><g id="레이어_1-2" data-name="레이어 1"><path class="cls-1" d="M89,2H13A11,11,0,0,0,2,13V89a11,11,0,0,0,11,11H89a11,11,0,0,0,11-11V13A11,11,0,0,0,89,2Zm3.48,77.48a13,13,0,0,1-13,13h-57a13,13,0,0,1-13-13v-57a13,13,0,0,1,13-13h57a13,13,0,0,1,13,13Z"/><path d="M89,0H13A13,13,0,0,0,0,13V89a13,13,0,0,0,13,13H89a13,13,0,0,0,13-13V13A13,13,0,0,0,89,0Zm11,89a11,11,0,0,1-11,11H13A11,11,0,0,1,2,89V13A11,11,0,0,1,13,2H89a11,11,0,0,1,11,11Z"/><path class="cls-2" d="M79.48,11.52h-57a11,11,0,0,0-11,11v57a11,11,0,0,0,11,11h57a11,11,0,0,0,11-11v-57A11,11,0,0,0,79.48,11.52ZM70.61,61.2a18.63,18.63,0,0,1-2.52,9.68,17.16,17.16,0,0,1-7,6.6A21.41,21.41,0,0,1,51,79.83q-9.3,0-14.45-4.69T31.39,61.86H45.14q0,3.9,1.35,5.66c.9,1.18,2.4,1.76,4.51,1.76a5.08,5.08,0,0,0,4.39-2.13,10,10,0,0,0,1.55-6v-39H70.61Z"/><path d="M79.48,9.52h-57a13,13,0,0,0-13,13v57a13,13,0,0,0,13,13h57a13,13,0,0,0,13-13v-57A13,13,0,0,0,79.48,9.52Zm11,70a11,11,0,0,1-11,11h-57a11,11,0,0,1-11-11v-57a11,11,0,0,1,11-11h57a11,11,0,0,1,11,11Z"/><path d="M56.94,61.2a10,10,0,0,1-1.55,6A5.08,5.08,0,0,1,51,69.28c-2.11,0-3.61-.58-4.51-1.76s-1.35-3.06-1.35-5.66H31.39q0,8.6,5.16,13.28T51,79.83a21.41,21.41,0,0,0,10.06-2.35,17.16,17.16,0,0,0,7-6.6,18.63,18.63,0,0,0,2.52-9.68v-39H56.94Z"/></g></g></svg>