<svg xmlns="http://www.w3.org/2000/svg" viewBox="0 0 278 149"><defs><style>.cls-1{fill:#0088db;}.cls-2{fill:#75c9fc;}.cls-3{fill:#fff;}</style></defs><title>level1btn</title><g id="레이어_2" data-name="레이어 2"><g id="레이어_1-2" data-name="레이어 1"><path class="cls-1" d="M266,0H12A12,12,0,0,0,0,12V137a12,12,0,0,0,12,12H266a12,12,0,0,0,12-12V12A12,12,0,0,0,266,0Zm0,126.5a12,12,0,0,1-12,12H24a12,12,0,0,1-12-12V23.5a12,12,0,0,1,12-12H254a12,12,0,0,1,12,12Z"/><path class="cls-2" d="M178.08,75.56a5.52,5.52,0,0,0-3.53-1A7.12,7.12,0,0,0,170,76.44a5.25,5.25,0,0,0-2.25,4h8.88c1.79,0,2.68-.75,2.68-2.25A3.19,3.19,0,0,0,178.08,75.56Z"/><path class="cls-2" d="M254,11.5H24a12,12,0,0,0-12,12v103a12,12,0,0,0,12,12H254a12,12,0,0,0,12-12V23.5A12,12,0,0,0,254,11.5ZM72.39,99.12a2.45,2.45,0,0,1-1.2,1.55,8,8,0,0,1-3.67.7H42.13q-4.93,0-5.78-2.68a11.16,11.16,0,0,1-.42-3.6V55.88a20.83,20.83,0,0,1,.1-2.43,5.52,5.52,0,0,1,.67-1.87q1-1.9,5.5-1.91c3.29,0,5.25.87,5.86,2.61A14.28,14.28,0,0,1,48.41,56v35H67.59a8.08,8.08,0,0,1,3.39.53,2.74,2.74,0,0,1,1.41,1.66,13,13,0,0,1,0,6Zm16.64-9a9.34,9.34,0,0,0,4.66,1.34,19.24,19.24,0,0,0,6.42-.85l.77-.28a7.09,7.09,0,0,1,2.83-.78q2.25,0,3.87,3.18A7.81,7.81,0,0,1,108.5,96q0,6.28-15,6.28a22.7,22.7,0,0,1-9.28-1.8,15.86,15.86,0,0,1-6.31-4.76A20.29,20.29,0,0,1,73.45,83q0-8.88,5.75-14.21a20.29,20.29,0,0,1,14.35-5.32q9.8,0,14.39,6.91a14.38,14.38,0,0,1,2.4,8q0,4.35-2.16,6.42a6.69,6.69,0,0,1-4.76,2.08H86.71C86.71,88.16,87.48,89.26,89,90.16Zm63.48-16.58-14.6,25a6.4,6.4,0,0,1-2.25,2.15,5.81,5.81,0,0,1-3.07,1,5.92,5.92,0,0,1-2.89-.74,5.55,5.55,0,0,1-1.94-1.51l-.64-.78L112.45,73.58A7.94,7.94,0,0,1,111,69.77q0-2.53,3.67-4.72a9.35,9.35,0,0,1,4.23-1.55,3.14,3.14,0,0,1,2.43,1,13.19,13.19,0,0,1,1.87,2.86l9.24,17.77,9.24-17.77c.52-.9.91-1.54,1.16-1.94a4.6,4.6,0,0,1,1.24-1.2,3.81,3.81,0,0,1,2.26-.6,8.4,8.4,0,0,1,3.88,1.48q3.66,2.19,3.66,4.65A8.63,8.63,0,0,1,152.51,73.58Zm17.7,16.58a9.34,9.34,0,0,0,4.66,1.34,19.24,19.24,0,0,0,6.42-.85l.77-.28a7.09,7.09,0,0,1,2.82-.78q2.26,0,3.88,3.18a7.81,7.81,0,0,1,.92,3.24q0,6.28-15,6.28a22.7,22.7,0,0,1-9.28-1.8,15.79,15.79,0,0,1-6.31-4.76A20.29,20.29,0,0,1,154.63,83q0-8.88,5.75-14.21a20.29,20.29,0,0,1,14.35-5.32q9.79,0,14.39,6.91a14.37,14.37,0,0,1,2.39,8c0,2.9-.71,5-2.15,6.42a6.69,6.69,0,0,1-4.76,2.08H167.89C167.89,88.16,168.66,89.26,170.21,90.16Zm43.66,10.51c-1.22.84-4.14,1-8.74.42-3.62-.47-6-1.67-7.06-3.6q-2-3.45-2-11V52.92a21.14,21.14,0,0,1,.1-2.44,6.73,6.73,0,0,1,.6-1.86q1-1.9,5.51-1.91,4.29,0,5.36,1.91a5.73,5.73,0,0,1,.67,1.9,21.86,21.86,0,0,1,.1,2.47V85.64a7.39,7.39,0,0,0,.42,3.21c.29.45.91.67,1.87.67a11.17,11.17,0,0,1,1.94.11,3.5,3.5,0,0,1,1.2.6q1.41.92,1.41,5Q215.28,99.68,213.87,100.67Zm28.36-5.36a20.35,20.35,0,0,1-.11,2.43,5.83,5.83,0,0,1-.67,1.87q-1,1.9-5.5,1.9t-5.43-1.83a5.55,5.55,0,0,1-.67-1.94,23.28,23.28,0,0,1-.11-2.57V70l-.92.84c-1.92,1.46-3.57,2.19-4.93,2.19s-2.79-.82-4.27-2.47-2.22-3.1-2.22-4.37.84-2.66,2.54-4.16L231.5,51.58l.22-.14a5.53,5.53,0,0,1,4-1.84,12.16,12.16,0,0,1,3.35.36,6,6,0,0,1,1.84.81,2.91,2.91,0,0,1,1,1.51,14.15,14.15,0,0,1,.36,3.74Z"/><path class="cls-2" d="M96.9,75.56a5.52,5.52,0,0,0-3.53-1,7.12,7.12,0,0,0-4.55,1.87,5.25,5.25,0,0,0-2.25,4h8.88c1.79,0,2.68-.75,2.68-2.25A3.19,3.19,0,0,0,96.9,75.56Z"/><path class="cls-3" d="M71,91.46a8.08,8.08,0,0,0-3.39-.53H48.41V56a14.28,14.28,0,0,0-.35-3.67c-.61-1.74-2.57-2.61-5.86-2.61q-4.52,0-5.5,1.91A5.52,5.52,0,0,0,36,53.45a20.83,20.83,0,0,0-.1,2.43V95.09a11.16,11.16,0,0,0,.42,3.6q.84,2.69,5.78,2.68H67.52a8,8,0,0,0,3.67-.7,2.45,2.45,0,0,0,1.2-1.55,13,13,0,0,0,0-6A2.74,2.74,0,0,0,71,91.46Z"/><path class="cls-3" d="M108.18,84.76q2.16-2.07,2.16-6.42a14.38,14.38,0,0,0-2.4-8q-4.59-6.91-14.39-6.91A20.29,20.29,0,0,0,79.2,68.75Q73.44,74.07,73.45,83a20.29,20.29,0,0,0,4.44,12.77,15.86,15.86,0,0,0,6.31,4.76,22.7,22.7,0,0,0,9.28,1.8q15,0,15-6.28a7.81,7.81,0,0,0-.92-3.24q-1.62-3.18-3.87-3.18a7.09,7.09,0,0,0-2.83.78l-.77.28a19.24,19.24,0,0,1-6.42.85A9.34,9.34,0,0,1,89,90.16c-1.55-.9-2.32-2-2.32-3.32h16.71A6.69,6.69,0,0,0,108.18,84.76ZM95.45,80.42H86.57a5.25,5.25,0,0,1,2.25-4,7.12,7.12,0,0,1,4.55-1.87,5.52,5.52,0,0,1,3.53,1,3.19,3.19,0,0,1,1.23,2.61C98.13,79.67,97.24,80.42,95.45,80.42Z"/><path class="cls-3" d="M150.26,65.05a8.4,8.4,0,0,0-3.88-1.48,3.81,3.81,0,0,0-2.26.6,4.6,4.6,0,0,0-1.24,1.2c-.25.4-.64,1-1.16,1.94l-9.24,17.77-9.24-17.77a13.19,13.19,0,0,0-1.87-2.86,3.14,3.14,0,0,0-2.43-1,9.35,9.35,0,0,0-4.23,1.55Q111,67.24,111,69.77a7.94,7.94,0,0,0,1.41,3.81l14.67,25.11.64.78A5.55,5.55,0,0,0,129.7,101a5.92,5.92,0,0,0,2.89.74,5.81,5.81,0,0,0,3.07-1,6.4,6.4,0,0,0,2.25-2.15l14.6-25a8.63,8.63,0,0,0,1.41-3.88Q153.92,67.24,150.26,65.05Z"/><path class="cls-3" d="M189.36,84.76c1.44-1.38,2.15-3.52,2.15-6.42a14.37,14.37,0,0,0-2.39-8q-4.59-6.91-14.39-6.91a20.29,20.29,0,0,0-14.35,5.32q-5.76,5.32-5.75,14.21a20.29,20.29,0,0,0,4.44,12.77,15.79,15.79,0,0,0,6.31,4.76,22.7,22.7,0,0,0,9.28,1.8q15,0,15-6.28a7.81,7.81,0,0,0-.92-3.24q-1.62-3.18-3.88-3.18a7.09,7.09,0,0,0-2.82.78l-.77.28a19.24,19.24,0,0,1-6.42.85,9.34,9.34,0,0,1-4.66-1.34c-1.55-.9-2.32-2-2.32-3.32H184.6A6.69,6.69,0,0,0,189.36,84.76Zm-12.73-4.34h-8.88a5.25,5.25,0,0,1,2.25-4,7.12,7.12,0,0,1,4.55-1.87,5.52,5.52,0,0,1,3.53,1,3.19,3.19,0,0,1,1.23,2.61C179.31,79.67,178.42,80.42,176.63,80.42Z"/><path class="cls-3" d="M213.87,90.23a3.5,3.5,0,0,0-1.2-.6,11.17,11.17,0,0,0-1.94-.11c-1,0-1.58-.22-1.87-.67a7.39,7.39,0,0,1-.42-3.21V53a21.86,21.86,0,0,0-.1-2.47,5.73,5.73,0,0,0-.67-1.9q-1.06-1.9-5.36-1.91-4.51,0-5.51,1.91a6.73,6.73,0,0,0-.6,1.86,21.14,21.14,0,0,0-.1,2.44V86.49q0,7.55,2,11c1.08,1.93,3.44,3.13,7.06,3.6,4.6.56,7.52.42,8.74-.42q1.41-1,1.41-5.43Q215.28,91.15,213.87,90.23Z"/><path class="cls-3" d="M240.89,50.77a6,6,0,0,0-1.84-.81,12.16,12.16,0,0,0-3.35-.36,5.53,5.53,0,0,0-4,1.84l-.22.14L219.94,62c-1.7,1.5-2.54,2.89-2.54,4.16s.74,2.73,2.22,4.37,2.9,2.47,4.27,2.47,3-.73,4.93-2.19l.92-.84V95.17a23.28,23.28,0,0,0,.11,2.57,5.55,5.55,0,0,0,.67,1.94q1,1.83,5.43,1.83t5.5-1.9a5.83,5.83,0,0,0,.67-1.87,20.35,20.35,0,0,0,.11-2.43V56a14.15,14.15,0,0,0-.36-3.74A2.91,2.91,0,0,0,240.89,50.77Z"/></g></g></svg>