<svg xmlns="http://www.w3.org/2000/svg" viewBox="0 0 278 149"><defs><style>.cls-1{fill:#3fa9f5;}.cls-2{fill:#75c9fc;}.cls-3{fill:#fff;}</style></defs><title>menubtn</title><g id="레이어_2" data-name="레이어 2"><g id="레이어_1-2" data-name="레이어 1"><path class="cls-1" d="M266,0H12A12,12,0,0,0,0,12V137a12,12,0,0,0,12,12H266a12,12,0,0,0,12-12V12A12,12,0,0,0,266,0Zm0,126.5a12,12,0,0,1-12,12H24a12,12,0,0,1-12-12V23.5a12,12,0,0,1,12-12H254a12,12,0,0,1,12,12Z"/><rect class="cls-2" x="12" y="11.5" width="254" height="127" rx="12" ry="12"/><path class="cls-3" d="M99.69,49.62a5.77,5.77,0,0,1,.68,2,22.13,22.13,0,0,1,.11,2.52v40q0,5-2.74,5.83a11.57,11.57,0,0,1-3.45.43A12.13,12.13,0,0,1,91,100a5.91,5.91,0,0,1-1.88-.86,3.3,3.3,0,0,1-1-1.44,14.34,14.34,0,0,1-.36-3.75V69.78q-1.8,2.23-5.26,7.1c-2.3,3.24-3.77,5.27-4.39,6.08l-1.3,1.69A6.74,6.74,0,0,1,75,86a6,6,0,0,1-6,.07,6.65,6.65,0,0,1-1.91-1.48l-.57-.79q-1.44-1.8-5.69-7.67t-4.61-6.3V94.05a19.18,19.18,0,0,1-.11,2.48,5.16,5.16,0,0,1-.68,1.84q-1.08,1.93-5.62,1.94c-2.92,0-4.75-.65-5.47-1.94a5.15,5.15,0,0,1-.68-1.87,23.26,23.26,0,0,1-.11-2.6v-40a21.21,21.21,0,0,1,.11-2.48,5.82,5.82,0,0,1,.68-1.91q1.08-1.87,5.62-1.87a10.74,10.74,0,0,1,3.35.47,4.27,4.27,0,0,1,1.83,1l.43.43L72,71q12.24-16.2,16.34-21.39,1.23-1.93,5.8-1.94T99.69,49.62Z"/><path class="cls-3" d="M144.62,76.88c0,3-.74,5.13-2.2,6.55a6.86,6.86,0,0,1-4.86,2.12H120.5c0,1.35.79,2.47,2.37,3.39a9.48,9.48,0,0,0,4.75,1.36,19.78,19.78,0,0,0,6.56-.86l.79-.29a7.2,7.2,0,0,1,2.88-.79q2.29,0,4,3.24a8,8,0,0,1,.93,3.31q0,6.42-15.33,6.41a23.06,23.06,0,0,1-9.47-1.84,16,16,0,0,1-6.44-4.86,20.65,20.65,0,0,1-4.54-13q0-9.07,5.87-14.51a20.73,20.73,0,0,1,14.65-5.43q10,0,14.69,7.05A14.67,14.67,0,0,1,144.62,76.88ZM129.42,79c1.83,0,2.74-.77,2.74-2.3A3.24,3.24,0,0,0,130.9,74a5.65,5.65,0,0,0-3.6-1,7.27,7.27,0,0,0-4.64,1.91A5.35,5.35,0,0,0,120.35,79Z"/><path class="cls-3" d="M172.19,62.44a15.24,15.24,0,0,1,12,5.51A19.77,19.77,0,0,1,189,81.38V94.05a21.21,21.21,0,0,1-.11,2.48,6,6,0,0,1-.61,1.84c-.67,1.29-2.55,1.94-5.62,1.94-3.41,0-5.37-.89-5.9-2.66A11.69,11.69,0,0,1,176.3,94V81.3A5.8,5.8,0,0,0,170.07,75a6.32,6.32,0,0,0-4.61,1.73,6,6,0,0,0-1.76,4.53V94.05a21.21,21.21,0,0,1-.11,2.48,5,5,0,0,1-.69,1.84q-.93,1.93-5.54,1.94t-5.54-1.94a6.88,6.88,0,0,1-.62-1.91,21.71,21.71,0,0,1-.1-2.48V68.49a20.78,20.78,0,0,1,.1-2.41,5.13,5.13,0,0,1,.69-1.84q1-1.8,5.54-1.8t5.4,1.66a5.71,5.71,0,0,1,.72,3,7.16,7.16,0,0,1,1.3-1.44,12.08,12.08,0,0,1,1.94-1.51A9.38,9.38,0,0,1,172.19,62.44Z"/><path class="cls-3" d="M213.38,100.24a15.3,15.3,0,0,1-12.06-5.51,19.7,19.7,0,0,1-4.79-13.43V68.7a19.18,19.18,0,0,1,.11-2.52,6.59,6.59,0,0,1,.61-1.87q1-1.94,5.61-1.94,5,0,5.91,2.73a11.34,11.34,0,0,1,.43,3.68v12.6a6.12,6.12,0,0,0,1.69,4.6,6.19,6.19,0,0,0,4.54,1.66A6.33,6.33,0,0,0,220,85.91a6.07,6.07,0,0,0,1.76-4.53V68.63a21.21,21.21,0,0,1,.11-2.48,5.82,5.82,0,0,1,.68-1.91q.93-1.87,5.55-1.87t5.54,1.94a6.82,6.82,0,0,1,.61,1.91,21.21,21.21,0,0,1,.11,2.48V94.19a20.32,20.32,0,0,1-.11,2.41,5.09,5.09,0,0,1-.68,1.84q-1.08,1.88-5.55,1.87c-2.92,0-4.73-.57-5.4-1.73a5.71,5.71,0,0,1-.72-3,7,7,0,0,1-1.29,1.44,18.23,18.23,0,0,1-2,1.59A9.65,9.65,0,0,1,213.38,100.24Z"/></g></g></svg>