<svg xmlns="http://www.w3.org/2000/svg" viewBox="0 0 102 102"><defs><style>.cls-1{fill:#3fa9f5;}.cls-2{fill:#fff;}</style></defs><title>o</title><g id="레이어_2" data-name="레이어 2"><g id="레이어_1-2" data-name="레이어 1"><path class="cls-1" d="M89,2H13A11,11,0,0,0,2,13V89a11,11,0,0,0,11,11H89a11,11,0,0,0,11-11V13A11,11,0,0,0,89,2Zm3.48,77.48a13,13,0,0,1-13,13h-57a13,13,0,0,1-13-13v-57a13,13,0,0,1,13-13h57a13,13,0,0,1,13,13Z"/><path d="M89,0H13A13,13,0,0,0,0,13V89a13,13,0,0,0,13,13H89a13,13,0,0,0,13-13V13A13,13,0,0,0,89,0Zm11,89a11,11,0,0,1-11,11H13A11,11,0,0,1,2,89V13A11,11,0,0,1,13,2H89a11,11,0,0,1,11,11Z"/><path class="cls-2" d="M79.48,11.52h-57a11,11,0,0,0-11,11v57a11,11,0,0,0,11,11h57a11,11,0,0,0,11-11v-57A11,11,0,0,0,79.48,11.52Zm-3.6,40.65A33.64,33.64,0,0,1,72.8,66.9,22.79,22.79,0,0,1,64,76.76a24.39,24.39,0,0,1-13,3.46,24.71,24.71,0,0,1-12.89-3.34,22.75,22.75,0,0,1-8.77-9.55,32.46,32.46,0,0,1-3.3-14.26v-3.2a33.75,33.75,0,0,1,3.06-14.75A22.81,22.81,0,0,1,38,25.26a24.59,24.59,0,0,1,13-3.48,24.37,24.37,0,0,1,12.89,3.44A23.15,23.15,0,0,1,72.7,35a32.77,32.77,0,0,1,3.18,14.55Z"/><path class="cls-2" d="M51,32.52Q40.68,32.52,40.1,48l0,4.18q0,8.37,2.78,12.85a9,9,0,0,0,8.24,4.5,9,9,0,0,0,8-4.42q2.8-4.41,2.85-12.69V49.79q0-8.48-2.83-12.87A9.09,9.09,0,0,0,51,32.52Z"/><path d="M79.48,9.52h-57a13,13,0,0,0-13,13v57a13,13,0,0,0,13,13h57a13,13,0,0,0,13-13v-57A13,13,0,0,0,79.48,9.52Zm11,70a11,11,0,0,1-11,11h-57a11,11,0,0,1-11-11v-57a11,11,0,0,1,11-11h57a11,11,0,0,1,11,11Z"/><path d="M63.89,25.22A24.37,24.37,0,0,0,51,21.78a24.59,24.59,0,0,0-13,3.48,22.81,22.81,0,0,0-8.79,9.86,33.75,33.75,0,0,0-3.06,14.75v3.2a32.46,32.46,0,0,0,3.3,14.26,22.75,22.75,0,0,0,8.77,9.55,24.71,24.71,0,0,0,12.89,3.34,24.39,24.39,0,0,0,13-3.46A22.79,22.79,0,0,0,72.8,66.9a33.64,33.64,0,0,0,3.08-14.73V49.55A32.77,32.77,0,0,0,72.7,35,23.15,23.15,0,0,0,63.89,25.22Zm-2,27.19q0,8.28-2.85,12.69a9,9,0,0,1-8,4.42A9,9,0,0,1,42.84,65q-2.78-4.48-2.78-12.85l0-4.18Q40.69,32.53,51,32.52a9.09,9.09,0,0,1,8.11,4.4q2.82,4.39,2.83,12.87Z"/></g></g></svg>