<svg xmlns="http://www.w3.org/2000/svg" viewBox="0 0 320 154"><defs><style>.cls-1{fill:#ffe500;}.cls-2{fill:#00922a;}.cls-3{fill:#fff;}</style></defs><title>ordermelogo</title><g id="레이어_2" data-name="레이어 2"><g id="레이어_1-2" data-name="레이어 1"><path class="cls-1" d="M307,56H232l-.22-.71a75.49,75.49,0,0,0-26.69-38.21,75,75,0,0,0-90.22,0A75.49,75.49,0,0,0,88.2,55.29L88,56H13A11,11,0,0,0,2,67v74a11,11,0,0,0,11,11H307a11,11,0,0,0,11-11V67A11,11,0,0,0,307,56ZM100.48,54.73a61.81,61.81,0,0,1,119,0l.36,1.27H100.12ZM309,131.2a13,13,0,0,1-13,13H24a13,13,0,0,1-13-13V76.8a13,13,0,0,1,13-13H296a13,13,0,0,1,13,13Z"/><path d="M307,54H233.5a77.69,77.69,0,0,0-27.18-38.52,77,77,0,0,0-92.64,0A77.69,77.69,0,0,0,86.5,54H13A13,13,0,0,0,0,67v74a13,13,0,0,0,13,13H307a13,13,0,0,0,13-13V67A13,13,0,0,0,307,54Zm11,87a11,11,0,0,1-11,11H13A11,11,0,0,1,2,141V67A11,11,0,0,1,13,56H88l.22-.71a75.49,75.49,0,0,1,26.69-38.21,75,75,0,0,1,90.22,0A75.49,75.49,0,0,1,231.8,55.29L232,56h75a11,11,0,0,1,11,11Z"/><path d="M219.52,54.73a61.81,61.81,0,0,0-119,0L100.12,56H219.88ZM101.44,55a60.82,60.82,0,0,1,117.12,0Z"/><path d="M296,63.8H24a13,13,0,0,0-13,13v54.4a13,13,0,0,0,13,13H296a13,13,0,0,0,13-13V76.8A13,13,0,0,0,296,63.8Zm12,67.4a12,12,0,0,1-12,12H24a12,12,0,0,1-12-12V76.8a12,12,0,0,1,12-12H296a12,12,0,0,1,12,12Z"/><path class="cls-2" d="M164.29,26a6.51,6.51,0,0,0-3.57-.8c-1.87,0-2.94,0-4.54,0l.18,5.71c1.57,0,2.64-.05,4.44,0a5.5,5.5,0,0,0,3.21-.79,2.39,2.39,0,0,0,1.1-2A2.16,2.16,0,0,0,164.29,26Z"/><path class="cls-2" d="M161.31,35.45c-2,0-3.09,0-4.81,0l.22,6.71c1.57,0,2.65,0,4.47,0a4.72,4.72,0,0,0,3-.85,3.05,3.05,0,0,0,1.11-2.39,3.18,3.18,0,0,0-.7-2.43A4.52,4.52,0,0,0,161.31,35.45Z"/><path class="cls-2" d="M134,38.27c2.18-.43,3.77-.7,6-1-1.56-2.76-2.66-4.62-4.28-7.17C135,33,134.56,35.15,134,38.27Z"/><path class="cls-2" d="M160,10.6A60.82,60.82,0,0,0,101.44,55H218.56A60.82,60.82,0,0,0,160,10.6Zm9.6,24.22a6.56,6.56,0,0,1,1.16,4.39,7.56,7.56,0,0,1-2.93,5.69,10.57,10.57,0,0,1-6.75,1.87c-3.38,0-5,0-8.41.2l-1,.05-1.49-26.16,1-.05c3.79-.22,5.76-.27,9.56-.25,3.33,0,5.9.7,7.64,2a6.35,6.35,0,0,1,2.42,5.81A5.6,5.6,0,0,1,169.24,32a7.31,7.31,0,0,1-1.41,1.17A6.37,6.37,0,0,1,169.6,34.82ZM127.06,49.67a165,165,0,0,1,4.91-26l.17-.62.63-.11c1.33-.24,2-.35,3.34-.56l.63-.1.35.53a161.41,161.41,0,0,1,13.13,22.91l.64,1.31-1.45.12c-1.31.11-2,.18-3.27.32l-.7.07-.31-.62c-1.1-2.2-1.7-3.37-2.78-5.37-3.6.46-5.65.81-9.21,1.55-.35,2.25-.54,3.55-.84,6l-.09.69-.68.16c-1.3.3-1.94.45-3.23.78l-1.42.37ZM196.84,34l-.15,1.12-1.09-.28c-1.42-.37-2.13-.54-3.56-.87l-.82-.19.05-.85a5.39,5.39,0,0,0-.91-3.85,7,7,0,0,0-8.78-.72c-1.33,1.11-2.17,2.95-2.49,5.47l-.3,2.33a9.56,9.56,0,0,0,.79,5.85,4.79,4.79,0,0,0,3.65,2.55A5.93,5.93,0,0,0,187,44.3a5.94,5.94,0,0,0,2.4-3.15l.32-.79.82.19c1.36.32,2,.48,3.39.83l1.1.28-.42,1.05a9.75,9.75,0,0,1-9.49,6.65,15.13,15.13,0,0,1-2.69-.25,10.35,10.35,0,0,1-7.14-4.53,13.47,13.47,0,0,1-2-9.15l.24-2.31a12.89,12.89,0,0,1,2.19-6.22,10,10,0,0,1,5-3.76,13.21,13.21,0,0,1,6.81-.41,12,12,0,0,1,7.43,4A9.2,9.2,0,0,1,196.84,34Z"/><path class="cls-2" d="M41.65,115.44A5.94,5.94,0,0,0,47,112.51c1.25-2,1.88-4.77,1.9-8.45v-1.74q0-5.64-1.88-8.56a6.05,6.05,0,0,0-5.4-2.92q-6.86,0-7.25,10.29l0,2.78q0,5.55,1.84,8.55A6,6,0,0,0,41.65,115.44Z"/><path class="cls-2" d="M79.07,91.23H73.3v10.42h5.77A5.2,5.2,0,0,0,83,100.28a5.3,5.3,0,0,0,1.31-3.82A5.36,5.36,0,0,0,83,92.62,5.15,5.15,0,0,0,79.07,91.23Z"/><path class="cls-2" d="M182,91.23h-5.77v10.42H182a5.2,5.2,0,0,0,3.91-1.37,5.3,5.3,0,0,0,1.31-3.82,5.36,5.36,0,0,0-1.32-3.84A5.15,5.15,0,0,0,182,91.23Z"/><path class="cls-2" d="M112.41,91.25h-3.06V115h3.17a7.12,7.12,0,0,0,6-2.79c1.4-1.87,2.1-4.63,2.1-8.31V102.3c0-3.66-.7-6.41-2.1-8.27A7.24,7.24,0,0,0,112.41,91.25Z"/><path class="cls-2" d="M296,64.8H24a12,12,0,0,0-12,12v54.4a12,12,0,0,0,12,12H296a12,12,0,0,0,12-12V76.8A12,12,0,0,0,296,64.8ZM25,104.51v-2.14a22.46,22.46,0,0,1,2-9.81A15.19,15.19,0,0,1,32.93,86a16.35,16.35,0,0,1,8.66-2.31A16.15,16.15,0,0,1,50.17,86,15.4,15.4,0,0,1,56,92.49a21.85,21.85,0,0,1,2.12,9.68v1.74a22.26,22.26,0,0,1-2.06,9.79,15.18,15.18,0,0,1-5.83,6.57,16.26,16.26,0,0,1-8.61,2.29,16.5,16.5,0,0,1-8.58-2.22A15.15,15.15,0,0,1,27.24,114,21.6,21.6,0,0,1,25,104.51Zm69.65,17.14V122H84.92l-6.68-13.38H73.3V122H64.18V84.21H79.07q6.74,0,10.52,3a10.11,10.11,0,0,1,3.8,8.43,12.33,12.33,0,0,1-1.6,6.54,11.35,11.35,0,0,1-5,4.21Zm5.54.39V84.21h12.18a18,18,0,0,1,9,2.27,16,16,0,0,1,6.25,6.42,19.3,19.3,0,0,1,2.27,9.29v1.74a19.55,19.55,0,0,1-2.19,9.32,16.06,16.06,0,0,1-6.19,6.44,17.45,17.45,0,0,1-8.9,2.35Zm59.2-22.81V106H145.08v9H162v7H136V84.21h26.12v7h-17v8Zm38.15,22.42V122h-9.77l-6.68-13.38h-4.94V122h-9.12V84.21H182q6.73,0,10.52,3a10.11,10.11,0,0,1,3.8,8.43,12.33,12.33,0,0,1-1.6,6.54,11.35,11.35,0,0,1-5,4.21Zm43.56.39h-6L225.94,95.1l.88,18.11V122H217.7V84.21h12l8.44,26.32,8.42-26.32h12V122H249.4v-8.83l.88-18.09Zm50.65-30.79h-17v8h14.35V106H274.79v9h16.94v7H265.67V84.21h26.12Z"/><path class="cls-3" d="M131.53,50l.68-.16.09-.69c.3-2.43.49-3.73.84-6,3.56-.74,5.61-1.09,9.21-1.55,1.08,2,1.68,3.17,2.78,5.37l.31.62.7-.07c1.3-.14,2-.21,3.27-.32l1.45-.12-.64-1.31a161.41,161.41,0,0,0-13.13-22.91l-.35-.53-.63.1c-1.34.21-2,.32-3.34.56l-.63.11-.17.62a165,165,0,0,0-4.91,26l-.18,1.45,1.42-.37C129.59,50.42,130.23,50.27,131.53,50ZM134,38.27c.56-3.12,1-5.24,1.68-8.18,1.62,2.55,2.72,4.41,4.28,7.17C137.77,37.57,136.18,37.84,134,38.27Z"/><path class="cls-3" d="M170.8,28.41a6.35,6.35,0,0,0-2.42-5.81c-1.74-1.34-4.31-2-7.64-2-3.8,0-5.77,0-9.56.25l-1,.05L151.67,47l1-.05c3.38-.2,5-.24,8.41-.2a10.57,10.57,0,0,0,6.75-1.87,7.56,7.56,0,0,0,2.93-5.69,6.56,6.56,0,0,0-1.16-4.39,6.37,6.37,0,0,0-1.77-1.7A7.31,7.31,0,0,0,169.24,32,5.6,5.6,0,0,0,170.8,28.41Zm-6.57,12.9a4.72,4.72,0,0,1-3,.85c-1.82,0-2.9,0-4.47,0l-.22-6.71c1.72,0,2.84,0,4.81,0a4.52,4.52,0,0,1,3.33,1,3.18,3.18,0,0,1,.7,2.43A3.05,3.05,0,0,1,164.23,41.31ZM164,30.09a5.5,5.5,0,0,1-3.21.79c-1.8,0-2.87,0-4.44,0l-.18-5.71c1.6,0,2.67-.05,4.54,0a6.51,6.51,0,0,1,3.57.8,2.16,2.16,0,0,1,.82,2.1A2.39,2.39,0,0,1,164,30.09Z"/><path class="cls-3" d="M187.53,22.73a13.21,13.21,0,0,0-6.81.41,10,10,0,0,0-5,3.76,12.89,12.89,0,0,0-2.19,6.22l-.24,2.31a13.47,13.47,0,0,0,2,9.15,10.35,10.35,0,0,0,7.14,4.53,15.13,15.13,0,0,0,2.69.25,9.75,9.75,0,0,0,9.49-6.65l.42-1.05-1.1-.28c-1.35-.35-2-.51-3.39-.83l-.82-.19-.32.79A5.94,5.94,0,0,1,187,44.3a5.93,5.93,0,0,1-3.76.27A4.79,4.79,0,0,1,179.58,42a9.56,9.56,0,0,1-.79-5.85l.3-2.33c.32-2.52,1.16-4.36,2.49-5.47a7,7,0,0,1,8.78.72,5.39,5.39,0,0,1,.91,3.85l-.05.85L192,34c1.43.33,2.14.5,3.56.87l1.09.28.15-1.12A9.2,9.2,0,0,0,195,26.7,12,12,0,0,0,187.53,22.73Z"/><path class="cls-3" d="M33.07,120.34a16.5,16.5,0,0,0,8.58,2.22,16.26,16.26,0,0,0,8.61-2.29,15.18,15.18,0,0,0,5.83-6.57,22.26,22.26,0,0,0,2.06-9.79v-1.74A21.85,21.85,0,0,0,56,92.49,15.4,15.4,0,0,0,50.17,86a16.15,16.15,0,0,0-8.58-2.29A16.35,16.35,0,0,0,32.93,86a15.19,15.19,0,0,0-5.85,6.56,22.46,22.46,0,0,0-2,9.81v2.14a21.6,21.6,0,0,0,2.2,9.48A15.15,15.15,0,0,0,33.07,120.34Zm1.27-19.21q.39-10.29,7.25-10.29A6.05,6.05,0,0,1,47,93.76q1.88,2.92,1.88,8.56v1.74c0,3.68-.65,6.49-1.9,8.45a5.94,5.94,0,0,1-5.32,2.93,6,6,0,0,1-5.49-3q-1.84-3-1.84-8.55Z"/><path class="cls-3" d="M91.79,102.17a12.33,12.33,0,0,0,1.6-6.54,10.11,10.11,0,0,0-3.8-8.43q-3.8-3-10.52-3H64.18V122H73.3V108.66h4.94L84.92,122h9.77v-.39l-7.9-15.27A11.35,11.35,0,0,0,91.79,102.17ZM83,100.28a5.2,5.2,0,0,1-3.91,1.37H73.3V91.23h5.77A5.15,5.15,0,0,1,83,92.62a5.36,5.36,0,0,1,1.32,3.84A5.3,5.3,0,0,1,83,100.28Z"/><path class="cls-3" d="M127.76,113.25a19.55,19.55,0,0,0,2.19-9.32v-1.74a19.3,19.3,0,0,0-2.27-9.29,16,16,0,0,0-6.25-6.42,18,18,0,0,0-9-2.27H100.23V122h12.44a17.45,17.45,0,0,0,8.9-2.35A16.06,16.06,0,0,0,127.76,113.25Zm-7.11-9.32c0,3.68-.7,6.44-2.1,8.31a7.12,7.12,0,0,1-6,2.79h-3.17V91.25h3.06A7.24,7.24,0,0,1,118.55,94c1.4,1.86,2.1,4.61,2.1,8.27Z"/><polygon class="cls-3" points="162.08 91.25 162.08 84.21 135.96 84.21 135.96 122.05 162.02 122.05 162.02 115.03 145.08 115.03 145.08 105.99 159.43 105.99 159.43 99.23 145.08 99.23 145.08 91.25 162.08 91.25"/><path class="cls-3" d="M194.68,102.17a12.33,12.33,0,0,0,1.6-6.54,10.11,10.11,0,0,0-3.8-8.43q-3.79-3-10.52-3H167.07V122h9.12V108.66h4.94L187.81,122h9.77v-.39l-7.9-15.27A11.35,11.35,0,0,0,194.68,102.17Zm-8.81-1.89a5.2,5.2,0,0,1-3.91,1.37h-5.77V91.23H182a5.15,5.15,0,0,1,3.9,1.39,5.36,5.36,0,0,1,1.32,3.84A5.3,5.3,0,0,1,185.87,100.28Z"/><polygon class="cls-3" points="249.4 122.05 258.55 122.05 258.55 84.21 246.54 84.21 238.12 110.53 229.68 84.21 217.7 84.21 217.7 122.05 226.82 122.05 226.82 113.21 225.94 95.1 235.11 122.05 241.14 122.05 250.28 95.13 249.4 113.21 249.4 122.05"/><polygon class="cls-3" points="265.67 122.05 291.74 122.05 291.74 115.03 274.79 115.03 274.79 105.99 289.14 105.99 289.14 99.23 274.79 99.23 274.79 91.25 291.79 91.25 291.79 84.21 265.67 84.21 265.67 122.05"/></g></g></svg>