<svg xmlns="http://www.w3.org/2000/svg" viewBox="0 0 102 102"><defs><style>.cls-1{fill:#7ac943;}.cls-2{fill:#fff;}</style></defs><title>p</title><g id="레이어_2" data-name="레이어 2"><g id="레이어_1-2" data-name="레이어 1"><path class="cls-1" d="M89,2H13A11,11,0,0,0,2,13V89a11,11,0,0,0,11,11H89a11,11,0,0,0,11-11V13A11,11,0,0,0,89,2Zm3.48,77.48a13,13,0,0,1-13,13h-57a13,13,0,0,1-13-13v-57a13,13,0,0,1,13-13h57a13,13,0,0,1,13,13Z"/><path d="M89,0H13A13,13,0,0,0,0,13V89a13,13,0,0,0,13,13H89a13,13,0,0,0,13-13V13A13,13,0,0,0,89,0Zm11,89a11,11,0,0,1-11,11H13A11,11,0,0,1,2,89V13A11,11,0,0,1,13,2H89a11,11,0,0,1,11,11Z"/><path class="cls-2" d="M79.48,11.52h-57a11,11,0,0,0-11,11v57a11,11,0,0,0,11,11h57a11,11,0,0,0,11-11v-57A11,11,0,0,0,79.48,11.52Zm-12,43.64q-6,5-16.35,5H42.33v19.3H28.62V22.56H51.31A26.5,26.5,0,0,1,62.86,25a18.26,18.26,0,0,1,7.77,6.84,18.73,18.73,0,0,1,2.75,10.06A16.45,16.45,0,0,1,67.43,55.16Z"/><path class="cls-2" d="M51.47,33.15H42.33v16.4h9a8.48,8.48,0,0,0,6.08-2,7.41,7.41,0,0,0,2.09-5.62,9.16,9.16,0,0,0-2.15-6.37A7.58,7.58,0,0,0,51.47,33.15Z"/><path d="M79.48,9.52h-57a13,13,0,0,0-13,13v57a13,13,0,0,0,13,13h57a13,13,0,0,0,13-13v-57A13,13,0,0,0,79.48,9.52Zm11,70a11,11,0,0,1-11,11h-57a11,11,0,0,1-11-11v-57a11,11,0,0,1,11-11h57a11,11,0,0,1,11,11Z"/><path d="M62.86,25a26.5,26.5,0,0,0-11.55-2.4H28.62V79.44H42.33V60.14h8.75q10.38,0,16.35-5a16.45,16.45,0,0,0,5.95-13.3A18.73,18.73,0,0,0,70.63,31.8,18.26,18.26,0,0,0,62.86,25Zm-5.47,22.6a8.48,8.48,0,0,1-6.08,2h-9V33.15h9.14a7.58,7.58,0,0,1,5.86,2.42,9.16,9.16,0,0,1,2.15,6.37A7.41,7.41,0,0,1,57.39,47.56Z"/></g></g></svg>