<svg xmlns="http://www.w3.org/2000/svg" viewBox="0 0 102 102"><defs><style>.cls-1{fill:#7ac943;}.cls-2{fill:#fff;}</style></defs><title>q</title><g id="레이어_2" data-name="레이어 2"><g id="레이어_1-2" data-name="레이어 1"><path class="cls-1" d="M89,2H13A11,11,0,0,0,2,13V89a11,11,0,0,0,11,11H89a11,11,0,0,0,11-11V13A11,11,0,0,0,89,2Zm3.48,77.48a13,13,0,0,1-13,13h-57a13,13,0,0,1-13-13v-57a13,13,0,0,1,13-13h57a13,13,0,0,1,13,13Z"/><path d="M89,0H13A13,13,0,0,0,0,13V89a13,13,0,0,0,13,13H89a13,13,0,0,0,13-13V13A13,13,0,0,0,89,0Zm11,89a11,11,0,0,1-11,11H13A11,11,0,0,1,2,89V13A11,11,0,0,1,13,2H89a11,11,0,0,1,11,11Z"/><path class="cls-2" d="M79.48,11.52h-57a11,11,0,0,0-11,11v57a11,11,0,0,0,11,11h57a11,11,0,0,0,11-11v-57A11,11,0,0,0,79.48,11.52ZM75.86,47.37a33.7,33.7,0,0,1-2.61,13.77A24,24,0,0,1,66,70.57l9.18,7.27L66.72,85,54.5,75.18a25,25,0,0,1-3.44.23,24.63,24.63,0,0,1-12.89-3.36,22.77,22.77,0,0,1-8.77-9.6,32.5,32.5,0,0,1-3.26-14.38v-3A33.67,33.67,0,0,1,29.2,30.3,22.88,22.88,0,0,1,38,20.45,24.53,24.53,0,0,1,51,17a24.36,24.36,0,0,1,12.89,3.43,23.23,23.23,0,0,1,8.81,9.79,32.58,32.58,0,0,1,3.18,14.55Z"/><path class="cls-2" d="M51,27.72a9,9,0,0,0-8.16,4.33Q40.08,36.4,40,44.75v2.62q0,8.4,2.78,12.87a9.06,9.06,0,0,0,8.24,4.47,9,9,0,0,0,8-4.41q2.79-4.42,2.83-12.7V45q0-8.48-2.83-12.87A9.08,9.08,0,0,0,51,27.72Z"/><path d="M79.48,9.52h-57a13,13,0,0,0-13,13v57a13,13,0,0,0,13,13h57a13,13,0,0,0,13-13v-57A13,13,0,0,0,79.48,9.52Zm11,70a11,11,0,0,1-11,11h-57a11,11,0,0,1-11-11v-57a11,11,0,0,1,11-11h57a11,11,0,0,1,11,11Z"/><path d="M63.87,20.41A24.36,24.36,0,0,0,51,17a24.53,24.53,0,0,0-13,3.47A22.88,22.88,0,0,0,29.2,30.3a33.67,33.67,0,0,0-3.06,14.76v3A32.5,32.5,0,0,0,29.4,62.45a22.77,22.77,0,0,0,8.77,9.6,24.63,24.63,0,0,0,12.89,3.36,25,25,0,0,0,3.44-.23L66.72,85l8.48-7.18L66,70.57a24,24,0,0,0,7.23-9.43,33.7,33.7,0,0,0,2.61-13.77V44.75A32.58,32.58,0,0,0,72.68,30.2,23.23,23.23,0,0,0,63.87,20.41ZM61.92,47.6q0,8.28-2.83,12.7a9,9,0,0,1-8,4.41,9.06,9.06,0,0,1-8.24-4.47Q40,55.77,40,47.37V44.75q0-8.36,2.78-12.7A9,9,0,0,1,51,27.72a9.08,9.08,0,0,1,8.11,4.39Q61.91,36.5,61.92,45Z"/></g></g></svg>