<svg xmlns="http://www.w3.org/2000/svg" viewBox="0 0 102 102"><defs><style>.cls-1{fill:#7ac943;}.cls-2{fill:#fff;}</style></defs><title>r</title><g id="레이어_2" data-name="레이어 2"><g id="레이어_1-2" data-name="레이어 1"><path class="cls-1" d="M89,2H13A11,11,0,0,0,2,13V89a11,11,0,0,0,11,11H89a11,11,0,0,0,11-11V13A11,11,0,0,0,89,2Zm3.48,77.48a13,13,0,0,1-13,13h-57a13,13,0,0,1-13-13v-57a13,13,0,0,1,13-13h57a13,13,0,0,1,13,13Z"/><path d="M89,0H13A13,13,0,0,0,0,13V89a13,13,0,0,0,13,13H89a13,13,0,0,0,13-13V13A13,13,0,0,0,89,0Zm11,89a11,11,0,0,1-11,11H13A11,11,0,0,1,2,89V13A11,11,0,0,1,13,2H89a11,11,0,0,1,11,11Z"/><path class="cls-2" d="M79.48,11.52h-57a11,11,0,0,0-11,11v57a11,11,0,0,0,11,11h57a11,11,0,0,0,11-11v-57A11,11,0,0,0,79.48,11.52ZM73.93,79.44H59.24l-10-20.12H41.78V79.44H28.07V22.56H50.45q10.13,0,15.82,4.49T72,39.73a18.42,18.42,0,0,1-2.41,9.84,17,17,0,0,1-7.52,6.32l11.88,23Z"/><path class="cls-2" d="M50.45,33.11H41.78V48.77h8.67q3.91,0,5.88-2.05a7.94,7.94,0,0,0,2-5.74,8,8,0,0,0-2-5.77A7.7,7.7,0,0,0,50.45,33.11Z"/><path d="M79.48,9.52h-57a13,13,0,0,0-13,13v57a13,13,0,0,0,13,13h57a13,13,0,0,0,13-13v-57A13,13,0,0,0,79.48,9.52Zm11,70a11,11,0,0,1-11,11h-57a11,11,0,0,1-11-11v-57a11,11,0,0,1,11-11h57a11,11,0,0,1,11,11Z"/><path d="M69.57,49.57A18.42,18.42,0,0,0,72,39.73q0-8.19-5.71-12.68T50.45,22.56H28.07V79.44H41.78V59.32H49.2l10,20.12H73.93v-.59l-11.88-23A17,17,0,0,0,69.57,49.57ZM56.33,46.72q-2,2.06-5.88,2.05H41.78V33.11h8.67a7.7,7.7,0,0,1,5.86,2.1,8,8,0,0,1,2,5.77A7.94,7.94,0,0,1,56.33,46.72Z"/></g></g></svg>