<svg xmlns="http://www.w3.org/2000/svg" viewBox="0 0 278 149"><defs><style>.cls-1{fill:#ff8c00;}.cls-2{fill:#ffaa4d;}.cls-3{fill:#fff;}</style></defs><title>resetbtn</title><g id="레이어_2" data-name="레이어 2"><g id="레이어_1-2" data-name="레이어 1"><path class="cls-1" d="M266,0H12A12,12,0,0,0,0,12V137a12,12,0,0,0,12,12H266a12,12,0,0,0,12-12V12A12,12,0,0,0,266,0Zm0,126.5a12,12,0,0,1-12,12H24a12,12,0,0,1-12-12V23.5a12,12,0,0,1,12-12H254a12,12,0,0,1,12,12Z"/><rect class="cls-2" x="12" y="11.5" width="254" height="127" rx="12" ry="12"/><path class="cls-3" d="M81.11,91.49a11.44,11.44,0,0,1,1.08,3.75c0,1.82-1.49,3.36-4.46,4.6a9.77,9.77,0,0,1-3.71,1,3.72,3.72,0,0,1-2.3-.68,5.3,5.3,0,0,1-1.34-1.41q-.72-1.37-5.61-13l-2.23.15H53.46V94a21.91,21.91,0,0,1-.1,2.49,5.82,5.82,0,0,1-.69,1.9q-1,1.95-5.61,1.95-5,0-5.91-2.67a11.93,11.93,0,0,1-.43-3.74V54a21.21,21.21,0,0,1,.11-2.48,5.74,5.74,0,0,1,.68-1.91c.67-1.3,2.55-2,5.62-2H62.68A20,20,0,0,1,75,52.25a16.86,16.86,0,0,1,4.75,6,19,19,0,0,1,1.88,8.5,17.88,17.88,0,0,1-5.4,13.39Q77.79,84,81.11,91.49ZM53.46,73.13h9.22a7,7,0,0,0,4.18-1.58,5.59,5.59,0,0,0,2.08-4.75A5.69,5.69,0,0,0,66.86,62a7,7,0,0,0-4.32-1.62H53.46Z"/><path class="cls-3" d="M123.09,76.91c0,3-.73,5.14-2.2,6.55A6.83,6.83,0,0,1,116,85.59H99c0,1.34.79,2.47,2.37,3.38a9.4,9.4,0,0,0,4.76,1.37,20,20,0,0,0,6.55-.86l.79-.29a7.2,7.2,0,0,1,2.88-.79c1.54,0,2.85,1.08,4,3.24a8,8,0,0,1,.94,3.31q0,6.4-15.34,6.41a23.22,23.22,0,0,1-9.47-1.84A16,16,0,0,1,90,94.66a20.67,20.67,0,0,1-4.54-13q0-9.07,5.87-14.51A20.74,20.74,0,0,1,106,61.68q10,0,14.69,7.06A14.66,14.66,0,0,1,123.09,76.91ZM107.9,79q2.73,0,2.73-2.31a3.24,3.24,0,0,0-1.26-2.66,5.65,5.65,0,0,0-3.6-1A7.27,7.27,0,0,0,101.13,75,5.35,5.35,0,0,0,98.82,79Z"/><path class="cls-3" d="M129.86,97a3,3,0,0,1-1.37-2.74c0-1.25.91-3.14,2.73-5.69a2.83,2.83,0,0,1,2.56-1.22,10.57,10.57,0,0,1,4.79,1.76A11,11,0,0,0,144,90.92q4.4,0,4.39-1.73c0-.91-1.61-1.59-4.82-2a23.52,23.52,0,0,1-9-3.38,9.59,9.59,0,0,1-3.46-4.07,14.76,14.76,0,0,1-1.37-6.59q0-11.37,15.63-11.37a25.37,25.37,0,0,1,10.51,2.44q2.52,1.15,2.52,2.88a8.52,8.52,0,0,1-1.58,4.25q-1.59,2.52-3.24,2.52a9.74,9.74,0,0,1-3.21-1.08,12,12,0,0,0-5.07-1.08c-2.84,0-4.25.53-4.25,1.59q0,2.16,4.89,2.8a26.88,26.88,0,0,1,9.22,2.74,8.14,8.14,0,0,1,3.49,3.49,12.51,12.51,0,0,1,1.41,6.23,13.29,13.29,0,0,1-1.41,6.37,9.07,9.07,0,0,1-3.92,3.93,26.59,26.59,0,0,1-11.56,2.23A24.68,24.68,0,0,1,129.86,97Z"/><path class="cls-3" d="M203.15,76.91c0,3-.73,5.14-2.19,6.55a6.86,6.86,0,0,1-4.86,2.13H179c0,1.34.79,2.47,2.38,3.38a9.37,9.37,0,0,0,4.75,1.37,20,20,0,0,0,6.55-.86l.79-.29a7.29,7.29,0,0,1,2.88-.79q2.31,0,4,3.24a7.85,7.85,0,0,1,.94,3.31q0,6.4-15.34,6.41a23.17,23.17,0,0,1-9.46-1.84A16.06,16.06,0,0,1,170,94.66a20.72,20.72,0,0,1-4.53-13q0-9.07,5.86-14.51A20.78,20.78,0,0,1,186,61.68q10,0,14.68,7.06A14.58,14.58,0,0,1,203.15,76.91ZM188,79c1.82,0,2.74-.77,2.74-2.31a3.24,3.24,0,0,0-1.26-2.66,5.65,5.65,0,0,0-3.6-1A7.31,7.31,0,0,0,181.19,75a5.37,5.37,0,0,0-2.3,4.07Z"/><path class="cls-3" d="M230.94,75.22l-4.68-.29v9.94a5,5,0,0,0,.62,2.81,2.64,2.64,0,0,0,2.3.86,23.69,23.69,0,0,1,2.59.11,5.13,5.13,0,0,1,1.91.68c1.1.63,1.66,2.23,1.66,4.83,0,3-.68,4.87-2,5.54a6.51,6.51,0,0,1-1.91.61,20.32,20.32,0,0,1-2.41.11q-7.49,0-11.38-3.38t-3.88-11.45V74.93a18.37,18.37,0,0,1-3,.22,3.29,3.29,0,0,1-2.62-1.23q-1-1.22-1-4.17a18.18,18.18,0,0,1,.36-4.29,3.85,3.85,0,0,1,1-1.9,4.4,4.4,0,0,1,2.88-.94l2.38.29V55.49a20.88,20.88,0,0,1,.1-2.45,4.59,4.59,0,0,1,.69-1.72q.93-1.8,5.54-1.8c3.27,0,5.21.88,5.83,2.66a13.45,13.45,0,0,1,.36,3.67v7.06c2.12-.19,3.71-.29,4.79-.29a20.86,20.86,0,0,1,2.45.11,5.82,5.82,0,0,1,1.91.68q1.88.95,1.87,5.55t-1.94,5.54a6.51,6.51,0,0,1-1.91.61A21.28,21.28,0,0,1,230.94,75.22Z"/></g></g></svg>