<svg xmlns="http://www.w3.org/2000/svg" viewBox="0 0 102 102"><defs><style>.cls-1{fill:#7ac943;}.cls-2{fill:#fff;}</style></defs><title>s</title><g id="레이어_2" data-name="레이어 2"><g id="레이어_1-2" data-name="레이어 1"><path class="cls-1" d="M89,2H13A11,11,0,0,0,2,13V89a11,11,0,0,0,11,11H89a11,11,0,0,0,11-11V13A11,11,0,0,0,89,2Zm3.48,77.48a13,13,0,0,1-13,13h-57a13,13,0,0,1-13-13v-57a13,13,0,0,1,13-13h57a13,13,0,0,1,13,13Z"/><path d="M89,0H13A13,13,0,0,0,0,13V89a13,13,0,0,0,13,13H89a13,13,0,0,0,13-13V13A13,13,0,0,0,89,0Zm11,89a11,11,0,0,1-11,11H13A11,11,0,0,1,2,89V13A11,11,0,0,1,13,2H89a11,11,0,0,1,11,11Z"/><path class="cls-2" d="M79.48,11.52h-57a11,11,0,0,0-11,11v57a11,11,0,0,0,11,11h57a11,11,0,0,0,11-11v-57A11,11,0,0,0,79.48,11.52ZM46.27,41.84c1.57,1.19,4.31,2.41,8.25,3.67a51.29,51.29,0,0,1,9.68,4.08q9.22,5.32,9.22,14.65A13.88,13.88,0,0,1,67.8,76q-5.62,4.26-15.43,4.26a30.65,30.65,0,0,1-12.52-2.48,18.91,18.91,0,0,1-8.44-6.8A17.69,17.69,0,0,1,28.58,61H42.33c0,3,.79,5.29,2.36,6.74s4.14,2.17,7.68,2.17a8.82,8.82,0,0,0,5.37-1.47,4.85,4.85,0,0,0,2-4.12,5.64,5.64,0,0,0-2.13-4.69,26.23,26.23,0,0,0-7.48-3.47,72.16,72.16,0,0,1-8.75-3.48q-11.06-5.43-11-14.92a13.36,13.36,0,0,1,2.75-8.34,17.81,17.81,0,0,1,7.79-5.63,30.37,30.37,0,0,1,11.33-2,26.51,26.51,0,0,1,11,2.19,17.42,17.42,0,0,1,7.56,6.23,16.3,16.3,0,0,1,2.69,9.24H59.75a6.86,6.86,0,0,0-2.13-5.39,8.28,8.28,0,0,0-5.76-1.92,9.36,9.36,0,0,0-5.8,1.62,4.78,4.78,0,0,0,.21,8.09Z"/><path d="M79.48,9.52h-57a13,13,0,0,0-13,13v57a13,13,0,0,0,13,13h57a13,13,0,0,0,13-13v-57A13,13,0,0,0,79.48,9.52Zm11,70a11,11,0,0,1-11,11h-57a11,11,0,0,1-11-11v-57a11,11,0,0,1,11-11h57a11,11,0,0,1,11,11Z"/><path d="M46.06,33.75a9.36,9.36,0,0,1,5.8-1.62,8.28,8.28,0,0,1,5.76,1.92,6.86,6.86,0,0,1,2.13,5.39H73.42a16.3,16.3,0,0,0-2.69-9.24A17.42,17.42,0,0,0,63.17,24a26.51,26.51,0,0,0-11-2.19,30.37,30.37,0,0,0-11.33,2,17.81,17.81,0,0,0-7.79,5.63,13.36,13.36,0,0,0-2.75,8.34q0,9.5,11.05,14.92a72.16,72.16,0,0,0,8.75,3.48,26.23,26.23,0,0,1,7.48,3.47,5.64,5.64,0,0,1,2.13,4.69,4.85,4.85,0,0,1-2,4.12,8.82,8.82,0,0,1-5.37,1.47c-3.54,0-6.1-.73-7.68-2.17S42.33,64.05,42.33,61H28.58a17.69,17.69,0,0,0,2.83,9.94,18.91,18.91,0,0,0,8.44,6.8,30.65,30.65,0,0,0,12.52,2.48q9.8,0,15.43-4.26a13.88,13.88,0,0,0,5.62-11.72q0-9.33-9.22-14.65a51.29,51.29,0,0,0-9.68-4.08c-3.94-1.26-6.68-2.48-8.25-3.67a4.78,4.78,0,0,1-.21-8.09Z"/></g></g></svg>