<svg xmlns="http://www.w3.org/2000/svg" viewBox="0 0 102 102"><defs><style>.cls-1{fill:#a772ff;}.cls-2{fill:#fff;}</style></defs><title>u</title><g id="레이어_2" data-name="레이어 2"><g id="레이어_1-2" data-name="레이어 1"><path class="cls-1" d="M89,2H13A11,11,0,0,0,2,13V89a11,11,0,0,0,11,11H89a11,11,0,0,0,11-11V13A11,11,0,0,0,89,2Zm3.48,77.48a13,13,0,0,1-13,13h-57a13,13,0,0,1-13-13v-57a13,13,0,0,1,13-13h57a13,13,0,0,1,13,13Z"/><path d="M89,0H13A13,13,0,0,0,0,13V89a13,13,0,0,0,13,13H89a13,13,0,0,0,13-13V13A13,13,0,0,0,89,0Zm11,89a11,11,0,0,1-11,11H13A11,11,0,0,1,2,89V13A11,11,0,0,1,13,2H89a11,11,0,0,1,11,11Z"/><path class="cls-2" d="M79.48,11.52h-57a11,11,0,0,0-11,11v57a11,11,0,0,0,11,11h57a11,11,0,0,0,11-11v-57A11,11,0,0,0,79.48,11.52ZM73.4,59.4a21.48,21.48,0,0,1-2.69,11,17.55,17.55,0,0,1-7.74,7,27.31,27.31,0,0,1-11.91,2.42q-10.39,0-16.37-5.39T28.6,59.67V22.17H42.39V60q.22,9.33,8.67,9.33c2.84,0,5-.78,6.44-2.34s2.19-4.1,2.19-7.62V22.17H73.4Z"/><path d="M79.48,9.52h-57a13,13,0,0,0-13,13v57a13,13,0,0,0,13,13h57a13,13,0,0,0,13-13v-57A13,13,0,0,0,79.48,9.52Zm11,70a11,11,0,0,1-11,11h-57a11,11,0,0,1-11-11v-57a11,11,0,0,1,11-11h57a11,11,0,0,1,11,11Z"/><path d="M59.69,59.32q0,5.28-2.19,7.62c-1.46,1.56-3.6,2.34-6.44,2.34q-8.45,0-8.67-9.33V22.17H28.6v37.5q.12,9.38,6.09,14.77t16.37,5.39A27.31,27.31,0,0,0,63,77.41a17.55,17.55,0,0,0,7.74-7,21.48,21.48,0,0,0,2.69-11V22.17H59.69Z"/></g></g></svg>