<svg xmlns="http://www.w3.org/2000/svg" viewBox="0 0 102 102"><defs><style>.cls-1{fill:#a772ff;}.cls-2{fill:#fff;}</style></defs><title>x</title><g id="레이어_2" data-name="레이어 2"><g id="레이어_1-2" data-name="레이어 1"><path class="cls-1" d="M89,2H13A11,11,0,0,0,2,13V89a11,11,0,0,0,11,11H89a11,11,0,0,0,11-11V13A11,11,0,0,0,89,2Zm3.48,77.48a13,13,0,0,1-13,13h-57a13,13,0,0,1-13-13v-57a13,13,0,0,1,13-13h57a13,13,0,0,1,13,13Z"/><path d="M89,0H13A13,13,0,0,0,0,13V89a13,13,0,0,0,13,13H89a13,13,0,0,0,13-13V13A13,13,0,0,0,89,0Zm11,89a11,11,0,0,1-11,11H13A11,11,0,0,1,2,89V13A11,11,0,0,1,13,2H89a11,11,0,0,1,11,11Z"/><path class="cls-2" d="M79.48,11.52h-57a11,11,0,0,0-11,11v57a11,11,0,0,0,11,11h57a11,11,0,0,0,11-11v-57A11,11,0,0,0,79.48,11.52ZM60.55,79.44,51,60.18,41.41,79.44H25.63L41.92,50.77,26.06,22.56H41.68L51,41.47l9.3-18.91H75.94L60,50.77,76.37,79.44Z"/><path d="M79.48,9.52h-57a13,13,0,0,0-13,13v57a13,13,0,0,0,13,13h57a13,13,0,0,0,13-13v-57A13,13,0,0,0,79.48,9.52Zm11,70a11,11,0,0,1-11,11h-57a11,11,0,0,1-11-11v-57a11,11,0,0,1,11-11h57a11,11,0,0,1,11,11Z"/><polygon points="75.94 22.56 60.28 22.56 50.98 41.47 41.68 22.56 26.06 22.56 41.92 50.77 25.63 79.44 41.41 79.44 50.98 60.18 60.55 79.44 76.37 79.44 60.04 50.77 75.94 22.56"/></g></g></svg>